<svg width="1057" height="290" viewBox="0 0 1057 290" fill="none" xmlns="http://www.w3.org/2000/svg">
<mask id="path-1-outside-1_51_222" maskUnits="userSpaceOnUse" x="219.5" y="60" width="826" height="166" fill="black">
<rect fill="white" x="219.5" y="60" width="826" height="166"/>
<path d="M277.893 223.673C266.902 223.673 257.249 221.668 248.932 217.658C240.763 213.648 234.303 207.93 229.55 200.504C224.946 193.079 222.57 184.242 222.421 173.994H247.372C247.521 181.865 250.194 188.623 255.392 194.267C260.739 199.762 268.165 202.509 277.67 202.509C286.433 202.509 293.264 200.504 298.166 196.494C303.067 192.336 305.517 186.989 305.517 180.454C305.517 174.959 304.032 170.429 301.062 166.865C298.24 163.152 293.784 159.885 287.695 157.063C281.606 154.092 273.734 151.048 264.081 147.929C251.159 143.77 241.654 138.052 235.565 130.775C229.476 123.349 226.431 114.289 226.431 103.596C226.431 91.2691 230.887 81.3183 239.798 73.7439C248.709 66.1694 260.962 62.3822 276.556 62.3822C291.705 62.3822 303.884 66.318 313.092 74.1894C322.3 81.9124 327.052 92.68 327.349 106.492H302.176C302.176 102.779 301.136 99.2148 299.057 95.7989C296.977 92.2344 294.007 89.3383 290.146 87.1106C286.284 84.7343 281.531 83.5461 275.888 83.5461C268.907 83.3976 263.041 85.1056 258.288 88.67C253.536 92.0859 251.159 96.7643 251.159 102.705C251.159 109.982 254.056 115.7 259.848 119.859C265.64 123.869 275.071 128.027 288.141 132.334C296.309 135.008 303.512 138.275 309.75 142.137C316.136 145.85 321.112 150.676 324.676 156.617C328.389 162.409 330.246 169.835 330.246 178.895C330.246 187.212 328.166 194.786 324.008 201.618C319.849 208.302 313.834 213.648 305.963 217.658C298.24 221.668 288.883 223.673 277.893 223.673ZM403.452 221V65.0555H456.251C468.132 65.0555 477.934 67.1348 485.657 71.2933C493.38 75.3033 499.098 80.8728 502.811 88.0017C506.524 95.1306 508.381 103.299 508.381 112.507C508.381 121.715 506.524 129.884 502.811 137.013C499.098 144.142 493.38 149.785 485.657 153.944C477.934 157.954 468.132 159.959 456.251 159.959H427.067V221H403.452ZM427.067 138.795H455.137C465.236 138.795 472.588 136.419 477.192 131.666C481.944 126.914 484.321 120.527 484.321 112.507C484.321 104.636 481.944 98.3237 477.192 93.5711C472.588 88.67 465.236 86.2194 455.137 86.2194H427.067V138.795ZM632.604 223.673C619.98 223.673 609.064 220.406 599.855 213.871C590.647 207.336 583.593 198.054 578.691 186.024C573.79 173.994 571.34 159.662 571.34 143.028C571.34 126.394 573.79 112.062 578.691 100.032C583.593 88.0017 590.647 78.7193 599.855 72.1844C609.064 65.6496 619.98 62.3822 632.604 62.3822C645.376 62.3822 656.292 65.6496 665.352 72.1844C674.56 78.7193 681.615 88.0017 686.516 100.032C691.417 112.062 693.868 126.394 693.868 143.028C693.868 159.662 691.417 173.994 686.516 186.024C681.615 198.054 674.56 207.336 665.352 213.871C656.292 220.406 645.376 223.673 632.604 223.673ZM632.604 201.396C643.743 201.396 652.728 196.42 659.56 186.469C666.392 176.37 669.808 161.89 669.808 143.028C669.808 124.166 666.392 109.76 659.56 99.8089C652.728 89.7096 643.743 84.66 632.604 84.66C621.316 84.66 612.257 89.7096 605.425 99.8089C598.741 109.76 595.4 124.166 595.4 143.028C595.4 161.89 598.741 176.37 605.425 186.469C612.257 196.42 621.316 201.396 632.604 201.396ZM798.932 221V86.2194H757.049V65.0555H864.428V86.2194H822.546V221H798.932ZM990.434 223.673C979.443 223.673 969.789 221.668 961.472 217.658C953.304 213.648 946.843 207.93 942.091 200.504C937.487 193.079 935.11 184.242 934.962 173.994H959.913C960.062 181.865 962.735 188.623 967.933 194.267C973.28 199.762 980.706 202.509 990.211 202.509C998.973 202.509 1005.81 200.504 1010.71 196.494C1015.61 192.336 1018.06 186.989 1018.06 180.454C1018.06 174.959 1016.57 170.429 1013.6 166.865C1010.78 163.152 1006.33 159.885 1000.24 157.063C994.147 154.092 986.275 151.048 976.621 147.929C963.7 143.77 954.195 138.052 948.106 130.775C942.017 123.349 938.972 114.289 938.972 103.596C938.972 91.2691 943.427 81.3183 952.339 73.7439C961.25 66.1694 973.502 62.3822 989.097 62.3822C1004.25 62.3822 1016.42 66.318 1025.63 74.1894C1034.84 81.9124 1039.59 92.68 1039.89 106.492H1014.72C1014.72 102.779 1013.68 99.2148 1011.6 95.7989C1009.52 92.2344 1006.55 89.3383 1002.69 87.1106C998.825 84.7343 994.072 83.5461 988.429 83.5461C981.448 83.3976 975.582 85.1056 970.829 88.67C966.077 92.0859 963.7 96.7643 963.7 102.705C963.7 109.982 966.596 115.7 972.389 119.859C978.181 123.869 987.612 128.027 1000.68 132.334C1008.85 135.008 1016.05 138.275 1022.29 142.137C1028.68 145.85 1033.65 150.676 1037.22 156.617C1040.93 162.409 1042.79 169.835 1042.79 178.895C1042.79 187.212 1040.71 194.786 1036.55 201.618C1032.39 208.302 1026.38 213.648 1018.5 217.658C1010.78 221.668 1001.42 223.673 990.434 223.673Z"/>
</mask>
<path d="M277.893 223.673C266.902 223.673 257.249 221.668 248.932 217.658C240.763 213.648 234.303 207.93 229.55 200.504C224.946 193.079 222.57 184.242 222.421 173.994H247.372C247.521 181.865 250.194 188.623 255.392 194.267C260.739 199.762 268.165 202.509 277.67 202.509C286.433 202.509 293.264 200.504 298.166 196.494C303.067 192.336 305.517 186.989 305.517 180.454C305.517 174.959 304.032 170.429 301.062 166.865C298.24 163.152 293.784 159.885 287.695 157.063C281.606 154.092 273.734 151.048 264.081 147.929C251.159 143.77 241.654 138.052 235.565 130.775C229.476 123.349 226.431 114.289 226.431 103.596C226.431 91.2691 230.887 81.3183 239.798 73.7439C248.709 66.1694 260.962 62.3822 276.556 62.3822C291.705 62.3822 303.884 66.318 313.092 74.1894C322.3 81.9124 327.052 92.68 327.349 106.492H302.176C302.176 102.779 301.136 99.2148 299.057 95.7989C296.977 92.2344 294.007 89.3383 290.146 87.1106C286.284 84.7343 281.531 83.5461 275.888 83.5461C268.907 83.3976 263.041 85.1056 258.288 88.67C253.536 92.0859 251.159 96.7643 251.159 102.705C251.159 109.982 254.056 115.7 259.848 119.859C265.64 123.869 275.071 128.027 288.141 132.334C296.309 135.008 303.512 138.275 309.75 142.137C316.136 145.85 321.112 150.676 324.676 156.617C328.389 162.409 330.246 169.835 330.246 178.895C330.246 187.212 328.166 194.786 324.008 201.618C319.849 208.302 313.834 213.648 305.963 217.658C298.24 221.668 288.883 223.673 277.893 223.673ZM403.452 221V65.0555H456.251C468.132 65.0555 477.934 67.1348 485.657 71.2933C493.38 75.3033 499.098 80.8728 502.811 88.0017C506.524 95.1306 508.381 103.299 508.381 112.507C508.381 121.715 506.524 129.884 502.811 137.013C499.098 144.142 493.38 149.785 485.657 153.944C477.934 157.954 468.132 159.959 456.251 159.959H427.067V221H403.452ZM427.067 138.795H455.137C465.236 138.795 472.588 136.419 477.192 131.666C481.944 126.914 484.321 120.527 484.321 112.507C484.321 104.636 481.944 98.3237 477.192 93.5711C472.588 88.67 465.236 86.2194 455.137 86.2194H427.067V138.795ZM632.604 223.673C619.98 223.673 609.064 220.406 599.855 213.871C590.647 207.336 583.593 198.054 578.691 186.024C573.79 173.994 571.34 159.662 571.34 143.028C571.34 126.394 573.79 112.062 578.691 100.032C583.593 88.0017 590.647 78.7193 599.855 72.1844C609.064 65.6496 619.98 62.3822 632.604 62.3822C645.376 62.3822 656.292 65.6496 665.352 72.1844C674.56 78.7193 681.615 88.0017 686.516 100.032C691.417 112.062 693.868 126.394 693.868 143.028C693.868 159.662 691.417 173.994 686.516 186.024C681.615 198.054 674.56 207.336 665.352 213.871C656.292 220.406 645.376 223.673 632.604 223.673ZM632.604 201.396C643.743 201.396 652.728 196.42 659.56 186.469C666.392 176.37 669.808 161.89 669.808 143.028C669.808 124.166 666.392 109.76 659.56 99.8089C652.728 89.7096 643.743 84.66 632.604 84.66C621.316 84.66 612.257 89.7096 605.425 99.8089C598.741 109.76 595.4 124.166 595.4 143.028C595.4 161.89 598.741 176.37 605.425 186.469C612.257 196.42 621.316 201.396 632.604 201.396ZM798.932 221V86.2194H757.049V65.0555H864.428V86.2194H822.546V221H798.932ZM990.434 223.673C979.443 223.673 969.789 221.668 961.472 217.658C953.304 213.648 946.843 207.93 942.091 200.504C937.487 193.079 935.11 184.242 934.962 173.994H959.913C960.062 181.865 962.735 188.623 967.933 194.267C973.28 199.762 980.706 202.509 990.211 202.509C998.973 202.509 1005.81 200.504 1010.71 196.494C1015.61 192.336 1018.06 186.989 1018.06 180.454C1018.06 174.959 1016.57 170.429 1013.6 166.865C1010.78 163.152 1006.33 159.885 1000.24 157.063C994.147 154.092 986.275 151.048 976.621 147.929C963.7 143.77 954.195 138.052 948.106 130.775C942.017 123.349 938.972 114.289 938.972 103.596C938.972 91.2691 943.427 81.3183 952.339 73.7439C961.25 66.1694 973.502 62.3822 989.097 62.3822C1004.25 62.3822 1016.42 66.318 1025.63 74.1894C1034.84 81.9124 1039.59 92.68 1039.89 106.492H1014.72C1014.72 102.779 1013.68 99.2148 1011.6 95.7989C1009.52 92.2344 1006.55 89.3383 1002.69 87.1106C998.825 84.7343 994.072 83.5461 988.429 83.5461C981.448 83.3976 975.582 85.1056 970.829 88.67C966.077 92.0859 963.7 96.7643 963.7 102.705C963.7 109.982 966.596 115.7 972.389 119.859C978.181 123.869 987.612 128.027 1000.68 132.334C1008.85 135.008 1016.05 138.275 1022.29 142.137C1028.68 145.85 1033.65 150.676 1037.22 156.617C1040.93 162.409 1042.79 169.835 1042.79 178.895C1042.79 187.212 1040.71 194.786 1036.55 201.618C1032.39 208.302 1026.38 213.648 1018.5 217.658C1010.78 221.668 1001.42 223.673 990.434 223.673Z" fill="#212121"/>
<path d="M248.932 217.658L247.95 219.658L247.957 219.662L247.964 219.665L248.932 217.658ZM229.55 200.504L227.657 201.678L227.665 201.692L227.674 201.705L229.55 200.504ZM222.421 173.994V171.766H220.161L220.194 174.026L222.421 173.994ZM247.372 173.994L249.6 173.952L249.558 171.766H247.372V173.994ZM255.392 194.267L253.754 195.776L253.774 195.798L253.796 195.82L255.392 194.267ZM298.166 196.494L299.576 198.219L299.592 198.206L299.607 198.193L298.166 196.494ZM301.062 166.865L299.288 168.213L299.318 168.253L299.35 168.291L301.062 166.865ZM287.695 157.063L286.718 159.065L286.738 159.075L286.758 159.084L287.695 157.063ZM264.081 147.929L264.765 145.809L264.763 145.808L264.081 147.929ZM235.565 130.775L233.842 132.188L233.849 132.196L233.856 132.205L235.565 130.775ZM313.092 74.1894L311.644 75.8828L311.652 75.8896L311.66 75.8963L313.092 74.1894ZM327.349 106.492V108.72H329.626L329.577 106.444L327.349 106.492ZM302.176 106.492H299.948V108.72H302.176V106.492ZM299.057 95.7989L297.132 96.9214L297.143 96.9394L297.154 96.9572L299.057 95.7989ZM290.146 87.1106L288.978 89.0079L289.005 89.0244L289.032 89.0402L290.146 87.1106ZM275.888 83.5461L275.84 85.7734L275.864 85.7739H275.888V83.5461ZM258.288 88.67L259.589 90.479L259.607 90.4658L259.625 90.4522L258.288 88.67ZM259.848 119.859L258.549 121.669L258.564 121.68L258.58 121.691L259.848 119.859ZM288.141 132.334L287.443 134.45L287.448 134.452L288.141 132.334ZM309.75 142.137L308.577 144.031L308.604 144.047L308.63 144.063L309.75 142.137ZM324.676 156.617L322.766 157.763L322.783 157.792L322.801 157.819L324.676 156.617ZM324.008 201.618L325.899 202.795L325.905 202.786L325.911 202.777L324.008 201.618ZM305.963 217.658L304.952 215.673L304.944 215.677L304.936 215.681L305.963 217.658ZM277.893 221.446C267.174 221.446 257.862 219.491 249.899 215.652L247.964 219.665C256.635 223.846 266.63 225.901 277.893 225.901V221.446ZM249.913 215.659C242.098 211.822 235.952 206.375 231.426 199.304L227.674 201.705C232.653 209.486 239.428 215.475 247.95 219.658L249.913 215.659ZM231.443 199.331C227.087 192.303 224.792 183.876 224.649 173.962L220.194 174.026C220.347 184.607 222.805 193.854 227.657 201.678L231.443 199.331ZM222.421 176.222H247.372V171.766H222.421V176.222ZM245.145 174.036C245.303 182.436 248.176 189.72 253.754 195.776L257.031 192.757C252.212 187.526 249.738 181.294 249.6 173.952L245.145 174.036ZM253.796 195.82C259.658 201.845 267.717 204.737 277.67 204.737V200.282C268.613 200.282 261.82 197.678 256.989 192.713L253.796 195.82ZM277.67 204.737C286.751 204.737 294.148 202.66 299.576 198.219L296.755 194.77C292.381 198.349 286.114 200.282 277.67 200.282V204.737ZM299.607 198.193C305.016 193.603 307.745 187.631 307.745 180.454H303.289C303.289 186.348 301.117 191.069 296.724 194.796L299.607 198.193ZM307.745 180.454C307.745 174.539 306.136 169.475 302.773 165.439L299.35 168.291C301.928 171.384 303.289 175.38 303.289 180.454H307.745ZM302.835 165.517C299.718 161.416 294.915 157.953 288.632 155.041L286.758 159.084C292.653 161.816 296.761 164.888 299.288 168.213L302.835 165.517ZM288.672 155.061C282.454 152.028 274.475 148.946 264.765 145.809L263.396 150.049C272.993 153.15 280.757 156.157 286.718 159.065L288.672 155.061ZM264.763 145.808C252.079 141.726 243 136.19 237.274 129.345L233.856 132.205C240.308 139.915 250.24 145.815 263.398 150.05L264.763 145.808ZM237.288 129.362C231.562 122.38 228.659 113.837 228.659 103.596H224.203C224.203 114.742 227.389 124.318 233.842 132.188L237.288 129.362ZM228.659 103.596C228.659 91.8823 232.857 82.5671 241.241 75.4413L238.355 72.0465C228.916 80.0696 224.203 90.6558 224.203 103.596H228.659ZM241.241 75.4413C249.631 68.3091 261.312 64.61 276.556 64.61V60.1544C260.611 60.1544 247.786 64.0298 238.355 72.0465L241.241 75.4413ZM276.556 64.61C291.311 64.61 302.933 68.436 311.644 75.8828L314.539 72.4961C304.834 64.1999 292.099 60.1544 276.556 60.1544V64.61ZM311.66 75.8963C320.3 83.143 324.837 93.2633 325.122 106.54L329.577 106.444C329.268 92.0967 324.299 80.6818 314.523 72.4825L311.66 75.8963ZM327.349 104.264H302.176V108.72H327.349V104.264ZM304.403 106.492C304.403 102.339 303.234 98.3776 300.96 94.6406L297.154 96.9572C299.038 100.052 299.948 103.219 299.948 106.492H304.403ZM300.981 94.6764C298.691 90.7501 295.428 87.5865 291.259 85.1809L289.032 89.0402C292.586 91.0902 295.264 93.7187 297.132 96.9214L300.981 94.6764ZM291.313 85.2132C287.024 82.5737 281.843 81.3183 275.888 81.3183V85.7739C281.22 85.7739 285.544 86.8948 288.978 89.0079L291.313 85.2132ZM275.935 81.3188C268.548 81.1617 262.17 82.9741 256.952 86.8878L259.625 90.4522C263.912 87.237 269.267 85.6335 275.84 85.7734L275.935 81.3188ZM256.988 86.861C251.643 90.7029 248.932 96.0599 248.932 102.705H253.387C253.387 97.4686 255.429 93.4689 259.589 90.479L256.988 86.861ZM248.932 102.705C248.932 110.682 252.159 117.081 258.549 121.669L261.147 118.049C255.952 114.319 253.387 109.282 253.387 102.705H248.932ZM258.58 121.691C264.644 125.889 274.325 130.127 287.443 134.45L288.838 130.219C275.817 125.928 266.636 121.849 261.116 118.027L258.58 121.691ZM287.448 134.452C295.476 137.079 302.513 140.277 308.577 144.031L310.923 140.242C304.511 136.274 297.142 132.936 288.833 130.217L287.448 134.452ZM308.63 144.063C314.714 147.599 319.408 152.167 322.766 157.763L326.586 155.471C322.816 149.186 317.559 144.1 310.87 140.211L308.63 144.063ZM322.801 157.819C326.221 163.156 328.018 170.129 328.018 178.895H332.473C332.473 169.542 330.557 161.663 326.552 155.415L322.801 157.819ZM328.018 178.895C328.018 186.821 326.042 193.991 322.105 200.46L325.911 202.777C330.29 195.581 332.473 187.604 332.473 178.895H328.018ZM322.116 200.441C318.197 206.739 312.507 211.824 304.952 215.673L306.974 219.643C315.162 215.472 321.501 209.864 325.899 202.795L322.116 200.441ZM304.936 215.681C297.603 219.489 288.618 221.446 277.893 221.446V225.901C289.149 225.901 298.877 223.848 306.989 219.635L304.936 215.681ZM403.452 221H401.225V223.228H403.452V221ZM403.452 65.0555V62.8278H401.225V65.0555H403.452ZM485.657 71.2933L484.601 73.2548L484.616 73.2628L484.631 73.2705L485.657 71.2933ZM502.811 88.0017L500.835 89.0308V89.0308L502.811 88.0017ZM502.811 137.013L500.835 135.984L502.811 137.013ZM485.657 153.944L486.684 155.921L486.699 155.913L486.714 155.905L485.657 153.944ZM427.067 159.959V157.731H424.839V159.959H427.067ZM427.067 221V223.228H429.295V221H427.067ZM427.067 138.795H424.839V141.023H427.067V138.795ZM477.192 131.666L475.617 130.091L475.604 130.103L475.592 130.116L477.192 131.666ZM477.192 93.5711L475.568 95.0964L475.592 95.1218L475.617 95.1464L477.192 93.5711ZM427.067 86.2194V83.9917H424.839V86.2194H427.067ZM405.68 221V65.0555H401.225V221H405.68ZM403.452 67.2833H456.251V62.8278H403.452V67.2833ZM456.251 67.2833C467.889 67.2833 477.297 69.322 484.601 73.2548L486.714 69.3318C478.571 64.9476 468.376 62.8278 456.251 62.8278V67.2833ZM484.631 73.2705C491.983 77.0878 497.352 82.3418 500.835 89.0308L504.787 86.9726C500.845 79.4037 494.778 73.5188 486.684 69.3162L484.631 73.2705ZM500.835 89.0308C504.36 95.7983 506.153 103.605 506.153 112.507H510.609C510.609 102.993 508.688 94.4628 504.787 86.9726L500.835 89.0308ZM506.153 112.507C506.153 121.41 504.36 129.216 500.835 135.984L504.787 138.042C508.688 130.552 510.609 122.021 510.609 112.507H506.153ZM500.835 135.984C497.348 142.68 491.969 148.015 484.601 151.982L486.714 155.905C494.792 151.555 500.849 145.603 504.787 138.042L500.835 135.984ZM484.631 151.967C477.319 155.763 467.899 157.731 456.251 157.731V162.187C468.365 162.187 478.55 160.145 486.684 155.921L484.631 151.967ZM456.251 157.731H427.067V162.187H456.251V157.731ZM424.839 159.959V221H429.295V159.959H424.839ZM427.067 218.772H403.452V223.228H427.067V218.772ZM427.067 141.023H455.137V136.567H427.067V141.023ZM455.137 141.023C465.526 141.023 473.591 138.584 478.792 133.216L475.592 130.116C471.584 134.253 464.946 136.567 455.137 136.567V141.023ZM478.767 133.241C484.017 127.992 486.549 120.996 486.549 112.507H482.093C482.093 120.059 479.872 125.835 475.617 130.091L478.767 133.241ZM486.549 112.507C486.549 104.154 484.009 97.2375 478.767 91.9958L475.617 95.1464C479.88 99.4099 482.093 105.118 482.093 112.507H486.549ZM478.816 92.0458C473.618 86.5129 465.543 83.9917 455.137 83.9917V88.4472C464.929 88.4472 471.558 90.8271 475.568 95.0964L478.816 92.0458ZM455.137 83.9917H427.067V88.4472H455.137V83.9917ZM424.839 86.2194V138.795H429.295V86.2194H424.839ZM599.855 213.871L601.145 212.054L599.855 213.871ZM578.691 186.024L576.628 186.864L578.691 186.024ZM578.691 100.032L576.628 99.1911L578.691 100.032ZM599.855 72.1844L598.566 70.3677L599.855 72.1844ZM665.352 72.1844L664.049 73.9912L664.056 73.9962L664.063 74.0012L665.352 72.1844ZM686.516 100.032L688.579 99.1911L686.516 100.032ZM686.516 186.024L688.579 186.864L686.516 186.024ZM665.352 213.871L664.063 212.054L664.056 212.059L664.049 212.064L665.352 213.871ZM659.56 186.469L661.396 187.73L661.401 187.724L661.405 187.718L659.56 186.469ZM659.56 99.8089L657.715 101.057L657.719 101.063L657.723 101.07L659.56 99.8089ZM605.425 99.8089L603.58 98.5606L603.575 98.5668L605.425 99.8089ZM605.425 186.469L603.567 187.699L603.577 187.715L603.588 187.73L605.425 186.469ZM632.604 221.446C620.385 221.446 609.932 218.291 601.145 212.054L598.566 215.688C608.195 222.521 619.575 225.901 632.604 225.901V221.446ZM601.145 212.054C592.332 205.8 585.52 196.881 580.755 185.183L576.628 186.864C581.665 199.226 588.963 208.873 598.566 215.688L601.145 212.054ZM580.755 185.183C575.988 173.484 573.568 159.451 573.568 143.028H569.112C569.112 159.873 571.593 174.504 576.628 186.864L580.755 185.183ZM573.568 143.028C573.568 126.604 575.988 112.572 580.755 100.872L576.628 99.1911C571.593 111.551 569.112 126.183 569.112 143.028H573.568ZM580.755 100.872C585.52 89.1742 592.332 80.2556 601.145 74.0012L598.566 70.3677C588.963 77.1829 581.665 86.8292 576.628 99.1911L580.755 100.872ZM601.145 74.0012C609.932 67.7649 620.385 64.61 632.604 64.61V60.1544C619.575 60.1544 608.195 63.5343 598.566 70.3677L601.145 74.0012ZM632.604 64.61C644.978 64.61 655.421 67.7683 664.049 73.9912L666.655 70.3776C657.163 63.531 645.774 60.1544 632.604 60.1544V64.61ZM664.063 74.0012C672.876 80.2556 679.687 89.1742 684.453 100.872L688.579 99.1911C683.543 86.8292 676.245 77.1829 666.641 70.3677L664.063 74.0012ZM684.453 100.872C689.219 112.572 691.64 126.604 691.64 143.028H696.095C696.095 126.183 693.615 111.551 688.579 99.1911L684.453 100.872ZM691.64 143.028C691.64 159.451 689.219 173.484 684.453 185.183L688.579 186.864C693.615 174.504 696.095 159.873 696.095 143.028H691.64ZM684.453 185.183C679.687 196.881 672.876 205.8 664.063 212.054L666.641 215.688C676.245 208.873 683.543 199.226 688.579 186.864L684.453 185.183ZM664.049 212.064C655.421 218.287 644.978 221.446 632.604 221.446V225.901C645.774 225.901 657.163 222.525 666.655 215.678L664.049 212.064ZM632.604 203.623C644.546 203.623 654.19 198.227 661.396 187.73L657.723 185.209C651.266 194.614 642.939 199.168 632.604 199.168V203.623ZM661.405 187.718C668.588 177.099 672.035 162.109 672.035 143.028H667.58C667.58 161.671 664.195 175.641 657.715 185.221L661.405 187.718ZM672.035 143.028C672.035 123.95 668.59 109.025 661.396 98.548L657.723 101.07C664.194 110.494 667.58 124.382 667.58 143.028H672.035ZM661.405 98.5606C654.205 87.9171 644.561 82.4322 632.604 82.4322V86.8878C642.924 86.8878 651.251 91.5021 657.715 101.057L661.405 98.5606ZM632.604 82.4322C620.509 82.4322 610.786 87.907 603.58 98.5606L607.27 101.057C613.727 91.5123 622.123 86.8878 632.604 86.8878V82.4322ZM603.575 98.5668C596.541 109.04 593.172 123.957 593.172 143.028H597.628C597.628 124.375 600.942 110.479 607.274 101.051L603.575 98.5668ZM593.172 143.028C593.172 162.102 596.543 177.084 603.567 187.699L607.283 185.24C600.94 175.656 597.628 161.678 597.628 143.028H593.172ZM603.588 187.73C610.802 198.237 620.524 203.623 632.604 203.623V199.168C622.109 199.168 613.712 194.604 607.261 185.209L603.588 187.73ZM798.932 221H796.704V223.228H798.932V221ZM798.932 86.2194H801.159V83.9917H798.932V86.2194ZM757.049 86.2194H754.822V88.4472H757.049V86.2194ZM757.049 65.0555V62.8278H754.822V65.0555H757.049ZM864.428 65.0555H866.656V62.8278H864.428V65.0555ZM864.428 86.2194V88.4472H866.656V86.2194H864.428ZM822.546 86.2194V83.9917H820.318V86.2194H822.546ZM822.546 221V223.228H824.774V221H822.546ZM801.159 221V86.2194H796.704V221H801.159ZM798.932 83.9917H757.049V88.4472H798.932V83.9917ZM759.277 86.2194V65.0555H754.822V86.2194H759.277ZM757.049 67.2833H864.428V62.8278H757.049V67.2833ZM862.201 65.0555V86.2194H866.656V65.0555H862.201ZM864.428 83.9917H822.546V88.4472H864.428V83.9917ZM820.318 86.2194V221H824.774V86.2194H820.318ZM822.546 218.772H798.932V223.228H822.546V218.772ZM961.472 217.658L960.491 219.658L960.498 219.662L960.505 219.665L961.472 217.658ZM942.091 200.504L940.197 201.678L940.206 201.692L940.214 201.705L942.091 200.504ZM934.962 173.994V171.766H932.702L932.734 174.026L934.962 173.994ZM959.913 173.994L962.14 173.952L962.099 171.766H959.913V173.994ZM967.933 194.267L966.294 195.776L966.315 195.798L966.336 195.82L967.933 194.267ZM1010.71 196.494L1012.12 198.219L1012.13 198.206L1012.15 198.193L1010.71 196.494ZM1013.6 166.865L1011.83 168.213L1011.86 168.253L1011.89 168.291L1013.6 166.865ZM1000.24 157.063L999.259 159.065L999.279 159.075L999.299 159.084L1000.24 157.063ZM976.621 147.929L977.306 145.809L977.304 145.808L976.621 147.929ZM948.106 130.775L946.383 132.188L946.39 132.196L946.397 132.205L948.106 130.775ZM1025.63 74.1894L1024.18 75.8828L1024.19 75.8896L1024.2 75.8963L1025.63 74.1894ZM1039.89 106.492V108.72H1042.17L1042.12 106.444L1039.89 106.492ZM1014.72 106.492H1012.49V108.72H1014.72V106.492ZM1011.6 95.7989L1009.67 96.9214L1009.68 96.9394L1009.69 96.9572L1011.6 95.7989ZM1002.69 87.1106L1001.52 89.0079L1001.55 89.0244L1001.57 89.0402L1002.69 87.1106ZM988.429 83.5461L988.381 85.7734L988.405 85.7739H988.429V83.5461ZM970.829 88.67L972.129 90.479L972.148 90.4658L972.166 90.4522L970.829 88.67ZM972.389 119.859L971.089 121.669L971.105 121.68L971.12 121.691L972.389 119.859ZM1000.68 132.334L999.984 134.45L999.988 134.452L1000.68 132.334ZM1022.29 142.137L1021.12 144.031L1021.14 144.047L1021.17 144.063L1022.29 142.137ZM1037.22 156.617L1035.31 157.763L1035.32 157.792L1035.34 157.819L1037.22 156.617ZM1036.55 201.618L1038.44 202.795L1038.45 202.786L1038.45 202.777L1036.55 201.618ZM1018.5 217.658L1017.49 215.673L1017.48 215.677L1017.48 215.681L1018.5 217.658ZM990.434 221.446C979.715 221.446 970.403 219.491 962.44 215.652L960.505 219.665C969.176 223.846 979.171 225.901 990.434 225.901V221.446ZM962.454 215.659C954.639 211.822 948.493 206.375 943.967 199.304L940.214 201.705C945.194 209.486 951.969 215.475 960.491 219.658L962.454 215.659ZM943.984 199.331C939.627 192.303 937.333 183.876 937.189 173.962L932.734 174.026C932.888 184.607 935.346 193.854 940.197 201.678L943.984 199.331ZM934.962 176.222H959.913V171.766H934.962V176.222ZM957.686 174.036C957.844 182.436 960.717 189.72 966.294 195.776L969.572 192.757C964.753 187.526 962.279 181.294 962.14 173.952L957.686 174.036ZM966.336 195.82C972.198 201.845 980.258 204.737 990.211 204.737V200.282C981.154 200.282 974.361 197.678 969.53 192.713L966.336 195.82ZM990.211 204.737C999.292 204.737 1006.69 202.66 1012.12 198.219L1009.3 194.77C1004.92 198.349 998.655 200.282 990.211 200.282V204.737ZM1012.15 198.193C1017.56 193.603 1020.29 187.631 1020.29 180.454H1015.83C1015.83 186.348 1013.66 191.069 1009.27 194.796L1012.15 198.193ZM1020.29 180.454C1020.29 174.539 1018.68 169.475 1015.31 165.439L1011.89 168.291C1014.47 171.384 1015.83 175.38 1015.83 180.454H1020.29ZM1015.38 165.517C1012.26 161.416 1007.46 157.953 1001.17 155.041L999.299 159.084C1005.19 161.816 1009.3 164.888 1011.83 168.213L1015.38 165.517ZM1001.21 155.061C994.995 152.028 987.016 148.946 977.306 145.809L975.936 150.049C985.534 153.15 993.298 156.157 999.259 159.065L1001.21 155.061ZM977.304 145.808C964.619 141.726 955.541 136.19 949.814 129.345L946.397 132.205C952.849 139.915 962.781 145.815 975.939 150.05L977.304 145.808ZM949.828 129.362C944.103 122.38 941.2 113.837 941.2 103.596H936.744C936.744 114.742 939.93 124.318 946.383 132.188L949.828 129.362ZM941.2 103.596C941.2 91.8823 945.398 82.5671 953.781 75.4413L950.896 72.0465C941.457 80.0696 936.744 90.6558 936.744 103.596H941.2ZM953.781 75.4413C962.172 68.3091 973.853 64.61 989.097 64.61V60.1544C973.152 60.1544 960.327 64.0298 950.896 72.0465L953.781 75.4413ZM989.097 64.61C1003.85 64.61 1015.47 68.436 1024.18 75.8828L1027.08 72.4961C1017.38 64.1999 1004.64 60.1544 989.097 60.1544V64.61ZM1024.2 75.8963C1032.84 83.143 1037.38 93.2633 1037.66 106.54L1042.12 106.444C1041.81 92.0967 1036.84 80.6818 1027.06 72.4825L1024.2 75.8963ZM1039.89 104.264H1014.72V108.72H1039.89V104.264ZM1016.94 106.492C1016.94 102.339 1015.78 98.3776 1013.5 94.6406L1009.69 96.9572C1011.58 100.052 1012.49 103.219 1012.49 106.492H1016.94ZM1013.52 94.6764C1011.23 90.7501 1007.97 87.5865 1003.8 85.1809L1001.57 89.0402C1005.13 91.0902 1007.8 93.7187 1009.67 96.9214L1013.52 94.6764ZM1003.85 85.2132C999.565 82.5737 994.384 81.3183 988.429 81.3183V85.7739C993.76 85.7739 998.085 86.8948 1001.52 89.0079L1003.85 85.2132ZM988.476 81.3188C981.088 81.1617 974.711 82.9741 969.492 86.8878L972.166 90.4522C976.453 87.237 981.808 85.6335 988.381 85.7734L988.476 81.3188ZM969.529 86.861C964.184 90.7029 961.472 96.0599 961.472 102.705H965.928C965.928 97.4686 967.969 93.4689 972.129 90.479L969.529 86.861ZM961.472 102.705C961.472 110.682 964.7 117.081 971.089 121.669L973.688 118.049C968.493 114.319 965.928 109.282 965.928 102.705H961.472ZM971.12 121.691C977.185 125.889 986.866 130.127 999.984 134.45L1001.38 130.219C988.358 125.928 979.177 121.849 973.657 118.027L971.12 121.691ZM999.988 134.452C1008.02 137.079 1015.05 140.277 1021.12 144.031L1023.46 140.242C1017.05 136.274 1009.68 132.936 1001.37 130.217L999.988 134.452ZM1021.17 144.063C1027.25 147.599 1031.95 152.167 1035.31 157.763L1039.13 155.471C1035.36 149.186 1030.1 144.1 1023.41 140.211L1021.17 144.063ZM1035.34 157.819C1038.76 163.156 1040.56 170.129 1040.56 178.895H1045.01C1045.01 169.542 1043.1 161.663 1039.09 155.415L1035.34 157.819ZM1040.56 178.895C1040.56 186.821 1038.58 193.991 1034.65 200.46L1038.45 202.777C1042.83 195.581 1045.01 187.604 1045.01 178.895H1040.56ZM1034.66 200.441C1030.74 206.739 1025.05 211.824 1017.49 215.673L1019.51 219.643C1027.7 215.472 1034.04 209.864 1038.44 202.795L1034.66 200.441ZM1017.48 215.681C1010.14 219.489 1001.16 221.446 990.434 221.446V225.901C1001.69 225.901 1011.42 223.848 1019.53 219.635L1017.48 215.681Z" fill="#212121" mask="url(#path-1-outside-1_51_222)"/>
<path d="M64.6945 44.5555L64.6945 133.667" stroke="#212121" stroke-width="27.8472"/>
<path d="M9 100.25L64.6944 144.806L120.389 100.25" stroke="#212121" stroke-width="27.8472" stroke-linejoin="bevel"/>
<circle cx="64.6944" cy="200.5" r="22.2778" fill="#212121"/>
</svg>
