<svg width="112" height="16" viewBox="0 0 112 16" fill="none" xmlns="http://www.w3.org/2000/svg">
<rect x="13.0679" y="4.87506" width="11.6506" height="3.21396" transform="rotate(135 13.0679 4.87506)" fill="white"/>
<path d="M14.204 1.4662C14.8316 2.09377 14.8316 3.11125 14.204 3.73881L13.6359 4.30697L11.3633 2.03436L11.9314 1.4662C12.559 0.83864 13.5765 0.83864 14.204 1.4662Z" fill="white"/>
<path d="M1.54045 13.4837L2.55698 10.8408L4.82959 13.1134L2.18661 14.1299C1.78224 14.2854 1.38492 13.8881 1.54045 13.4837Z" fill="white"/>
<path d="M26.3643 4.352V7.616H30.2043V9.104H26.3643V12.512H30.6843V14H24.5403V2.864H30.6843V4.352H26.3643ZM32.323 9.552C32.323 8.66667 32.5043 7.88267 32.867 7.2C33.2403 6.51733 33.7416 5.98933 34.371 5.616C35.011 5.232 35.7203 5.04 36.499 5.04C37.075 5.04 37.6403 5.168 38.195 5.424C38.7603 5.66933 39.2083 6 39.539 6.416V2.16H41.379V14H39.539V12.672C39.2403 13.0987 38.8243 13.4507 38.291 13.728C37.7683 14.0053 37.1656 14.144 36.483 14.144C35.715 14.144 35.011 13.952 34.371 13.568C33.7416 13.1733 33.2403 12.6293 32.867 11.936C32.5043 11.232 32.323 10.4373 32.323 9.552ZM39.539 9.584C39.539 8.976 39.411 8.448 39.155 8C38.9096 7.552 38.5843 7.21067 38.179 6.976C37.7736 6.74133 37.3363 6.624 36.867 6.624C36.3976 6.624 35.9603 6.74133 35.555 6.976C35.1496 7.2 34.819 7.536 34.563 7.984C34.3176 8.42133 34.195 8.944 34.195 9.552C34.195 10.16 34.3176 10.6933 34.563 11.152C34.819 11.6107 35.1496 11.9627 35.555 12.208C35.971 12.4427 36.4083 12.56 36.867 12.56C37.3363 12.56 37.7736 12.4427 38.179 12.208C38.5843 11.9733 38.9096 11.632 39.155 11.184C39.411 10.7253 39.539 10.192 39.539 9.584ZM44.7027 4.016C44.372 4.016 44.0947 3.904 43.8707 3.68C43.6467 3.456 43.5347 3.17867 43.5347 2.848C43.5347 2.51733 43.6467 2.24 43.8707 2.016C44.0947 1.792 44.372 1.68 44.7027 1.68C45.0227 1.68 45.2947 1.792 45.5187 2.016C45.7427 2.24 45.8547 2.51733 45.8547 2.848C45.8547 3.17867 45.7427 3.456 45.5187 3.68C45.2947 3.904 45.0227 4.016 44.7027 4.016ZM45.5987 5.184V14H43.7747V5.184H45.5987ZM50.1215 6.672V11.552C50.1215 11.8827 50.1961 12.1227 50.3455 12.272C50.5055 12.4107 50.7721 12.48 51.1455 12.48H52.2655V14H50.8255C50.0041 14 49.3748 13.808 48.9375 13.424C48.5001 13.04 48.2815 12.416 48.2815 11.552V6.672H47.2415V5.184H48.2815V2.992H50.1215V5.184H52.2655V6.672H50.1215ZM64.8068 11.728H60.1508L59.3508 14H57.4468L61.4308 2.864H63.5428L67.5268 14H65.6068L64.8068 11.728ZM64.2948 10.24L62.4868 5.072L60.6628 10.24H64.2948ZM72.6671 12.368L75.1631 5.184H77.0991L73.7391 14H71.5631L68.2191 5.184H70.1711L72.6671 12.368ZM77.8698 9.552C77.8698 8.66667 78.0512 7.88267 78.4138 7.2C78.7872 6.51733 79.2885 5.98933 79.9178 5.616C80.5578 5.232 81.2618 5.04 82.0298 5.04C82.7232 5.04 83.3258 5.17867 83.8378 5.456C84.3605 5.72267 84.7765 6.05867 85.0858 6.464V5.184H86.9258V14H85.0858V12.688C84.7765 13.104 84.3552 13.4507 83.8218 13.728C83.2885 14.0053 82.6805 14.144 81.9978 14.144C81.2405 14.144 80.5472 13.952 79.9178 13.568C79.2885 13.1733 78.7872 12.6293 78.4138 11.936C78.0512 11.232 77.8698 10.4373 77.8698 9.552ZM85.0858 9.584C85.0858 8.976 84.9578 8.448 84.7018 8C84.4565 7.552 84.1312 7.21067 83.7258 6.976C83.3205 6.74133 82.8832 6.624 82.4138 6.624C81.9445 6.624 81.5072 6.74133 81.1018 6.976C80.6965 7.2 80.3658 7.536 80.1098 7.984C79.8645 8.42133 79.7418 8.944 79.7418 9.552C79.7418 10.16 79.8645 10.6933 80.1098 11.152C80.3658 11.6107 80.6965 11.9627 81.1018 12.208C81.5178 12.4427 81.9552 12.56 82.4138 12.56C82.8832 12.56 83.3205 12.4427 83.7258 12.208C84.1312 11.9733 84.4565 11.632 84.7018 11.184C84.9578 10.7253 85.0858 10.192 85.0858 9.584ZM91.4496 6.672V11.552C91.4496 11.8827 91.5242 12.1227 91.6736 12.272C91.8336 12.4107 92.1002 12.48 92.4736 12.48H93.5936V14H92.1536C91.3322 14 90.7029 13.808 90.2656 13.424C89.8282 13.04 89.6096 12.416 89.6096 11.552V6.672H88.5696V5.184H89.6096V2.992H91.4496V5.184H93.5936V6.672H91.4496ZM94.6667 9.552C94.6667 8.66667 94.848 7.88267 95.2107 7.2C95.584 6.51733 96.0854 5.98933 96.7147 5.616C97.3547 5.232 98.0587 5.04 98.8267 5.04C99.52 5.04 100.123 5.17867 100.635 5.456C101.157 5.72267 101.573 6.05867 101.883 6.464V5.184H103.723V14H101.883V12.688C101.573 13.104 101.152 13.4507 100.619 13.728C100.085 14.0053 99.4774 14.144 98.7947 14.144C98.0374 14.144 97.344 13.952 96.7147 13.568C96.0854 13.1733 95.584 12.6293 95.2107 11.936C94.848 11.232 94.6667 10.4373 94.6667 9.552ZM101.883 9.584C101.883 8.976 101.755 8.448 101.499 8C101.253 7.552 100.928 7.21067 100.523 6.976C100.117 6.74133 99.68 6.624 99.2107 6.624C98.7414 6.624 98.304 6.74133 97.8987 6.976C97.4934 7.2 97.1627 7.536 96.9067 7.984C96.6614 8.42133 96.5387 8.944 96.5387 9.552C96.5387 10.16 96.6614 10.6933 96.9067 11.152C97.1627 11.6107 97.4934 11.9627 97.8987 12.208C98.3147 12.4427 98.752 12.56 99.2107 12.56C99.68 12.56 100.117 12.4427 100.523 12.208C100.928 11.9733 101.253 11.632 101.499 11.184C101.755 10.7253 101.883 10.192 101.883 9.584ZM107.942 6.464C108.209 6.016 108.561 5.66933 108.998 5.424C109.446 5.168 109.974 5.04 110.582 5.04V6.928H110.118C109.404 6.928 108.86 7.10933 108.486 7.472C108.124 7.83467 107.942 8.464 107.942 9.36V14H106.118V5.184H107.942V6.464Z" fill="white"/>
</svg>
